{
  "accessors": [
    {
      "bufferView": 0,
      "componentType": 5125,
      "count": 3066,
      "type": "SCALAR"
    },
    {
      "bufferView": 1,
      "componentType": 5126,
      "count": 863,
      "max": [
        0.008671532988101638,
        0.008384765409303635,
        0.007999999797902998
      ],
      "min": [
        -0.008671532988101624,
        -0.008384765409303663,
        -0.007999999797902998
      ],
      "type": "VEC3"
    },
    {
      "bufferView": 2,
      "componentType": 5126,
      "count": 863,
      "max": [
        0.9999991986028534,
        0.9999201114576257,
        1.0
      ],
      "min": [
        -0.9999999824537815,
        -0.9999999999999997,
        -1.0
      ],
      "type": "VEC3"
    },
    {
      "bufferView": 3,
      "componentType": 5126,
      "count": 863,
      "max": [
        0.9818685937986221,
        1.0
      ],
      "min": [
        0.0,
        0.0
      ],
      "type": "VEC2"
    }
  ],
  "asset": {
    "generator": "Adobe Illustrator",
    "version": "2.0"
  },
  "bufferViews": [
    {
      "buffer": 0,
      "byteLength": 12264,
      "target": 34963
    },
    {
      "buffer": 0,
      "byteLength": 10356,
      "byteOffset": 12264,
      "target": 34962
    },
    {
      "buffer": 0,
      "byteLength": 10356,
      "byteOffset": 22620,
      "target": 34962
    },
    {
      "buffer": 0,
      "byteLength": 6904,
      "byteOffset": 32976,
      "target": 34962
    }
  ],
  "buffers": [
    {
      "byteLength": 39880,
      "uri": "data:application/octet-stream;base64,"
    }
  ],
  "images": [
    {
      "name": "BaseColor",
      "uri": "data:image/png;base64,"
    },
    {
      "name": "Normal",
      "uri": "data:image/png;base64,"
    },
    {
      "name": "AO",
      "uri": "data:image/png;base64,"
    },
    {
      "name": "MetallicRoughness",
      "uri": "data:image/png;base64,"
    }
  ],
  "materials": [
    {
      "doubleSided": true,
      "normalTexture": {
        "index": 1
      },
      "occlusionTexture": {
        "index": 2
      },
      "pbrMetallicRoughness": {
        "baseColorTexture": {
          "index": 0
        },
        "metallicRoughnessTexture": {
          "index": 3
        }
      }
    }
  ],
  "meshes": [
    {
      "primitives": [
        {
          "attributes": {
            "NORMAL": 2,
            "POSITION": 1,
            "TEXCOORD_0": 3
          },
          "indices": 0,
          "material": 0,
          "mode": 4
        }
      ]
    }
  ],
  "nodes": [
    {
      "mesh": 0
    }
  ],
  "samplers": [
    {
      "magFilter": 9729,
      "minFilter": 9729,
      "wrapS": 10497,
      "wrapT": 10497
    }
  ],
  "scenes": [
    {
      "nodes": [
        0
      ]
    }
  ],
  "textures": [
    {
      "sampler": 0,
      "source": 0
    },
    {
      "sampler": 0,
      "source": 1
    },
    {
      "sampler": 0,
      "source": 2
    },
    {
      "sampler": 0,
      "source": 3
    }
  ]
}
