<svg width="289" height="198" viewBox="0 0 289 198" fill="none" xmlns="http://www.w3.org/2000/svg">
<g clip-path="url(#clip0_168_17)">
<path d="M28.45 76.84C25.58 87.49 26.66 97.11 32.86 106.03C33.8 107.38 34.99 108.73 35.36 110.24C36.31 114.11 35.39 117.61 31.75 119.77C27.98 122.01 24.32 121.43 21.26 118.38C14.61 111.73 11.37 103.28 10.59 94.25C9.99999 87.39 10.74 80.31 11.8 73.48C12.26 70.56 11.84 68.99 9.97999 67C-5.14001 50.82 -2.97001 22.92 15.75 11.48C36.98 -1.50002 60.09 -4.17002 83.24 7.07998C93.53 12.08 100.46 21.1 106.56 30.56C112.95 40.48 118.53 51 125.64 60.38C142.86 83.11 166.84 94.74 194.72 94.52C230.73 94.24 253.69 112.27 270.42 141.55C278.37 155.47 284.09 170.31 287.91 185.87C289.65 192.94 286.31 197.43 279.07 197.42C229.72 197.38 180.37 197.51 131.03 196.97C117.55 196.82 104.32 193.86 92.62 186.23C91.58 185.55 89.03 185.77 88.05 186.6C78.54 194.66 67.6 198.04 55.26 197.5C50.77 197.3 46.26 197.54 41.76 197.44C35.63 197.29 32.33 194.22 32.41 188.23C32.68 166.45 37.27 145.76 48.22 126.67C49.54 124.37 50.29 121.43 50.32 118.77C50.43 108.66 48.5 98.92 43.49 90C40.14 84.04 35.44 79.52 28.45 76.84ZM210.76 180.43C207.07 173.95 203.18 167.81 199.99 161.33C197.66 156.61 199.63 152 203.93 149.98C208.3 147.94 212.68 149.56 215.22 154.24C216.09 155.85 216.71 157.59 217.63 159.17C230.24 180.75 246.14 182.79 268.6 179.8C262.25 161.02 254.16 143.29 240.16 128.92C230.57 119.07 219.11 112.87 205.04 112.11C196.59 111.65 188.09 111.25 179.72 110.06C154.58 106.49 133.06 95.51 116.72 76C108.98 66.77 103.32 55.83 96.21 46.03C90.69 38.41 85.29 30.29 78.24 24.26C67.15 14.78 40.48 15.63 26.6 24.32C18.66 29.29 16.41 36.67 17.63 45.42C18.74 53.4 23.52 58.03 31.32 60C40.12 62.23 47.37 67.11 53.13 74.11C64.17 87.53 67.32 103.49 67.38 120.26C67.39 124.09 66.56 128.14 65.15 131.7C61.31 141.37 56.41 150.64 53 160.44C50.84 166.67 50.6 173.56 49.49 180.17C70.92 183.03 83.93 173.04 86.42 152.76C87.02 147.83 90.34 144.75 95 144.79C99.82 144.83 103.49 148.26 103.31 153.44C103.17 157.7 102.65 162.15 101.23 166.13C99.79 170.14 101.2 171.89 104.39 173.54C112.83 177.93 121.98 179.82 131.28 180.01C156.93 180.53 182.59 180.54 208.24 180.73C209.18 180.73 210.11 180.52 210.77 180.44L210.76 180.43Z" fill="white"/>
<path d="M49.37 40.3599C49.5 44.8599 45.48 49.0199 40.96 49.0699C36.44 49.1199 32.35 45.0499 32.38 40.5299C32.4 36.1999 36.19 32.2799 40.54 32.0799C45.04 31.8799 49.24 35.8099 49.37 40.3499V40.3599Z" fill="white"/>
</g>
<defs>
<clipPath id="clip0_168_17">
<rect width="288.36" height="197.55" fill="white"/>
</clipPath>
</defs>
</svg>
