<svg width="111" height="115" viewBox="0 0 111 115" fill="none" xmlns="http://www.w3.org/2000/svg">
<g clip-path="url(#clip0_160_17)">
<path d="M55.02 49.46C64.53 49.87 72.27 53.53 76.84 61.71C80.68 68.58 85.85 73.68 92.48 77.59C94.12 78.56 95.67 79.67 97.23 80.76C103.31 85 106.09 92.58 104.15 99.56C102.11 106.88 95.88 111.93 88.34 112.39C85.5 112.57 83.07 111.75 81.05 109.72C79.46 108.12 77.89 106.49 76.25 104.94C73.02 101.87 69.04 102.29 66.5 105.96C65.54 107.35 64.66 108.81 63.64 110.15C59.34 115.78 50.97 115.74 46.69 110.08C45.63 108.68 44.73 107.15 43.71 105.71C41.33 102.38 37.39 101.94 34.37 104.7C33.02 105.94 31.66 107.19 30.48 108.59C27.05 112.69 22.69 113.22 18.01 111.69C11.21 109.47 6.94999 104.75 5.87999 97.61C4.84999 90.74 7.32999 85.13 12.87 80.98C15.69 78.87 18.66 76.96 21.64 75.09C26.3 72.17 29.78 68.27 32.39 63.42C37.26 54.39 45.04 49.95 55.02 49.47V49.46Z" fill="white"/>
<path d="M49.8799 24.19C49.2199 27.84 48.7599 31.54 47.8599 35.14C46.8999 38.98 44.2199 41.33 40.2699 41.82C36.5099 42.29 33.5099 40.76 31.4899 37.53C26.4599 29.47 23.7599 20.8 25.0999 11.24C25.3999 9.07998 26.3699 6.90998 27.4899 5.00998C29.6499 1.33998 33.1099 -0.320016 37.3099 0.0499836C41.5199 0.419984 44.6099 2.64998 46.1899 6.57998C48.4399 12.19 49.4499 18.06 49.8799 24.18V24.19Z" fill="white"/>
<path d="M60.5001 24.07C60.5001 24.07 60.5001 24.05 60.5001 24.04C60.9501 18.08 61.9201 12.36 64.0801 6.87001C65.5701 3.08001 68.3001 0.800005 72.1201 0.180005C76.6701 -0.549995 81.1901 1.83001 83.4401 5.85001C86.1301 10.64 85.9901 15.83 85.1901 21.05C84.3201 26.74 82.2801 32.04 79.2801 36.96C77.1901 40.39 74.2301 42.33 70.1601 41.84C65.9301 41.32 61.4001 38.68 60.5001 34.53C59.7401 31.05 60.1601 29.27 60.5001 24.08V24.07Z" fill="white"/>
<path d="M25.1699 50.92C24.4199 54.77 23.8999 58.67 22.8599 62.44C21.8999 65.93 19.2399 67.96 15.6699 68.48C12.0799 69 9.05991 67.68 7.05991 64.68C2.01991 57.15 -0.540094 48.83 0.0999063 39.74C0.269906 37.29 1.14991 34.77 2.22991 32.54C4.22991 28.41 7.79991 26.4 12.3799 26.72C16.9599 27.04 20.0999 29.58 21.6799 33.88C23.6999 39.34 24.6799 45 25.1699 50.92Z" fill="white"/>
<path d="M85.23 50.76C85.7 44.93 86.68 39.34 88.67 33.94C90.25 29.64 93.36 27.07 97.93 26.73C102.6 26.38 106.04 28.53 108.28 32.65C111.17 37.95 110.71 43.56 109.72 49.15C108.78 54.46 106.74 59.4 103.83 63.96C101.71 67.29 98.71 69.04 94.75 68.49C90.81 67.95 88.17 65.57 87.25 61.71C86.39 58.11 85.89 54.42 85.23 50.77V50.76Z" fill="white"/>
</g>
<defs>
<clipPath id="clip0_160_17">
<rect width="110.48" height="114.33" fill="white"/>
</clipPath>
</defs>
</svg>
