<svg width="384" height="255" viewBox="0 0 384 255" fill="none" xmlns="http://www.w3.org/2000/svg">
<g clip-path="url(#clip0_153_17)">
<path d="M-1.95317e-05 87.75C2.28998 80.16 3.75998 72.2 7.01998 65.06C21.06 34.24 45.67 16.32 78.33 9.35997C88.5 7.18997 99.05 6.70998 109.46 5.71998C114.12 5.27998 117.83 8.59997 118.06 12.73C118.29 16.82 115.39 20.22 110.81 20.74C102.15 21.72 93.35 21.87 84.82 23.47C52.24 29.57 28.82 47.06 17.72 79.17C14.66 88.03 14.44 97.13 15.53 106.7C20.72 105.36 24.39 102.48 27.25 98.67C29.18 96.1 30.74 93.23 32.21 90.36C34.74 85.43 38.57 83.54 42.7 85.44C46.98 87.4 48.14 91.65 45.81 96.84C39.8 110.25 31.62 117.54 16.93 122.2C17.79 127.17 18.47 132.3 19.59 137.33C27.75 174.01 43.62 207.07 66.38 236.91C67.88 238.87 69.4 239.72 71.94 239.7C88.52 239.58 105.1 239.64 122.15 239.64C121.42 235.28 119.52 231.66 116.66 228.81C106.67 218.84 108.8 221.8 108.45 206.7C108.14 193.48 107.97 180.26 107.79 167.04C107.71 160.88 110.39 157.44 115.16 157.37C120.05 157.3 122.76 160.8 122.77 167.19C122.77 171.55 122.77 175.91 122.77 181.17C125.72 181.17 128.51 181.19 131.31 181.17C149.57 181.05 167.77 179.99 184.89 172.96C191.24 170.35 197.22 166.5 202.79 162.43C209.64 157.42 212.62 150.5 210.09 141.83C208.18 135.28 206.52 128.65 204.63 122.09C203.74 119 203.47 115.75 206.12 113.84C208.1 112.41 211.29 111.41 213.52 111.96C215.58 112.47 217.77 114.98 218.71 117.13C223.18 127.38 225.16 138.27 226.02 149.38C227.45 167.89 228.89 186.41 230.32 204.92C231.2 216.34 232.08 227.76 232.98 239.43H275.63C274.71 234.89 272.77 230.68 269.28 227.98C262.06 222.38 261.92 216.03 263.68 207.56C266.86 192.21 272.84 177.94 277.75 163.23C280.95 153.63 282.77 143.46 284.17 133.41C286.03 120.08 282.87 107.4 276.68 95.52C274.09 90.56 271.31 85.69 268.46 80.87C265.96 76.65 266.41 72.4 269.86 69.95C273.41 67.43 277.97 67.92 280.58 72.16C285.45 80.07 289.68 88.38 294.12 96.54C294.7 97.6 294.98 98.81 295.59 100.44C299.48 97.97 303.16 95.71 306.75 93.33C326.67 80.1 346.58 66.85 366.43 53.52C367.35 52.9 367.69 51.41 368.28 50.32C368.33 50.22 368.28 50.07 368.28 49.95C368.23 45.96 369.52 41.17 367.74 38.22C366.1 35.5 361.07 34.93 357.73 33.06C355.86 32.01 353.92 30.54 352.8 28.76C346.85 19.33 338.84 14.04 327.31 15.17C322.12 15.68 316.93 16.1 310.81 16.65C312.04 19.23 312.86 21.21 313.9 23.07C316.29 27.37 315.55 31.57 311.89 33.9C308.18 36.26 303.79 35.34 301.3 31.12C299.11 27.41 297.53 23.34 295.43 18.89C290.98 18.89 285.77 18.66 280.58 18.93C260.7 19.95 241.1 22.79 222.78 30.94C216.4 33.78 210.72 34.09 204.14 32.23C195.42 29.76 186.45 28.17 177.56 26.33C171.47 25.07 168.31 20.07 170.83 15.23C172.62 11.81 175.61 10.57 179.3 11.34C189.28 13.42 199.22 15.68 209.21 17.65C211.25 18.05 213.72 18.06 215.59 17.28C232.88 10.11 250.87 5.95998 269.49 4.70998C279.92 3.99998 290.42 4.33998 300.84 3.61998C306.87 3.19998 312.78 1.22998 318.81 0.619976C331.5 -0.670024 344.09 -0.810025 354.61 8.24998C356.59 9.94998 358.95 11.53 360.21 13.7C363.61 19.57 369.29 21.81 375.05 24.17C382.74 27.33 383.24 28.19 383.24 36.34C383.24 42.7 383.11 49.07 383.29 55.42C383.4 59.21 381.86 61.83 378.8 63.83C352.94 80.71 327.09 97.6 301.3 114.58C300.31 115.23 299.34 116.89 299.41 118.02C300.91 142.67 294.29 165.45 284.6 187.82C281.1 195.9 280.07 205.08 278.12 213.8C277.93 214.64 279.02 215.95 279.79 216.79C287.51 225.21 291.81 235 291.91 246.5C291.95 251.68 289.03 254.62 283.84 254.62C264.75 254.65 245.67 254.65 226.58 254.62C221.69 254.62 218.95 252.08 218.56 247.18C216.78 225.2 215.06 203.21 213.3 181.22C213.13 179.11 212.82 177.02 212.53 174.5C185.96 194.92 154.94 196.27 123.49 196.25C123.49 201.94 123.37 207.5 123.6 213.05C123.65 214.16 124.94 215.31 125.84 216.27C133.86 224.77 138.36 234.75 138.45 246.53C138.49 251.7 135.56 254.61 130.34 254.62C108.88 254.65 87.43 254.59 65.97 254.68C62.47 254.69 60.14 253.15 58.06 250.57C34.94 221.9 18.3 189.86 8.26998 154.42C4.32998 140.5 1.67998 126.33 0.66998 111.88C0.58998 110.8 0.21998 109.74 -0.0200195 108.67C-0.0200195 101.68 -0.0200195 94.7 -0.0200195 87.71L-1.95317e-05 87.75Z" fill="white"/>
</g>
<defs>
<clipPath id="clip0_153_17">
<rect width="383.3" height="254.72" fill="white"/>
</clipPath>
</defs>
</svg>
