<svg width="289" height="270" viewBox="0 0 289 270" fill="none" xmlns="http://www.w3.org/2000/svg">
<path d="M102.38 125.546C96.9904 116.476 91.4704 107.826 86.6004 98.8163C80.7304 87.9363 76.3804 76.5863 76.8604 63.7563C78.0704 31.6863 105.12 2.99628 137.13 0.28628C174.75 -2.90372 205.42 20.8363 211.57 57.9763C213.31 68.4463 212.04 78.7163 207.32 88.1263C201.75 99.2463 195.34 109.936 189.26 120.796C188.38 122.366 187.3 123.806 186.66 124.786C197.75 130.296 209.21 134.866 219.51 141.306C254.66 163.286 276.84 194.716 285.06 235.496C286.82 244.226 287.39 253.236 288.04 262.146C288.47 268.086 286.78 269.466 280.83 269.476C244.48 269.486 208.14 269.476 171.79 269.476C117.27 269.476 62.7504 269.476 8.23036 269.476C1.06036 269.476 0.0103598 268.466 0.000359802 261.576C-0.13964 202.716 40.5904 146.576 97.3404 127.406C99.0304 126.836 100.69 126.176 102.39 125.546H102.38ZM247.17 179.476C246.95 178.496 246.97 178.106 246.79 177.896C229.58 157.586 208.4 143.276 182.9 135.376C180.23 134.546 178.88 135.226 177.15 137.366C168.45 148.106 159.59 158.716 150.6 169.206C145.66 174.966 143.56 175.056 138.67 169.406C129.51 158.836 120.54 148.096 111.75 137.226C109.84 134.856 108.39 134.416 105.55 135.286C83.2804 142.116 63.9704 153.806 47.9904 170.676C41.3304 177.706 35.6304 185.636 28.6504 194.186H74.7004C76.6804 182.536 83.9404 175.056 94.2104 174.606C102.36 174.246 110.56 174.236 118.71 174.606C130.71 175.136 140.22 185.626 139.94 197.466C139.65 209.446 129.94 219.136 117.83 219.496C115.38 219.566 112.92 219.506 110.25 219.506C110.15 221.176 110.04 222.306 110.02 223.436C109.75 236.356 101.51 244.446 88.5604 244.466C83.2304 244.476 77.8504 244.876 72.5604 244.386C62.5304 243.456 57.9604 250.706 60.6104 259.156H151.83C144.75 239.826 159.12 227.916 174.1 229.256C184.85 230.216 195.76 229.516 206.59 229.396C211.63 229.336 214.85 226.136 214.71 221.796C214.58 217.636 211.46 214.746 206.69 214.566C203.36 214.436 200.02 214.646 196.69 214.496C190.21 214.206 185.25 211.166 182.05 205.576C175.31 193.786 183.78 179.666 197.79 179.516C214.12 179.346 230.45 179.476 247.14 179.476H247.17ZM144.48 160.996C148.32 156.586 151.78 152.766 155.08 148.816C170.26 130.656 184.63 111.946 195.35 90.6863C201.29 78.8963 203.69 66.8963 200.54 53.6363C194.83 29.6463 170.14 7.16628 138.3 10.2063C103.01 13.5763 74.7404 53.4463 92.4704 88.4263C106 115.126 124.46 138.116 144.47 160.986L144.48 160.996ZM277.98 259.196C277.86 257.826 277.79 256.696 277.67 255.576C277.54 254.416 277.28 253.276 277.2 252.116C275.7 230.836 268.67 211.396 257.78 193.196C256.14 190.456 254.3 189.346 251.01 189.396C237.52 189.596 224.02 189.476 210.52 189.486C206.19 189.486 201.85 189.336 197.53 189.546C192.93 189.766 189.95 192.956 189.99 197.166C190.04 201.396 193.09 204.306 197.76 204.456C200.59 204.546 203.42 204.456 206.26 204.486C216.88 204.556 224.76 211.936 224.85 221.906C224.94 231.826 217.01 239.436 206.46 239.466C194.46 239.506 182.47 239.406 170.47 239.506C163.54 239.566 159.26 244.516 160.11 251.176C160.76 256.256 165.03 259.466 171.39 259.466C205.55 259.486 239.7 259.476 273.86 259.466C275.16 259.466 276.47 259.316 277.98 259.216V259.196ZM49.7804 259.236C49.8504 257.696 49.9204 256.706 49.9304 255.706C50.1404 241.966 57.7004 234.436 71.3404 234.406C77.1704 234.396 83.0104 234.446 88.8404 234.386C96.1004 234.316 99.7704 230.576 99.8904 223.226C99.9304 220.556 99.8904 217.896 99.9104 215.226C99.9504 211.336 101.95 209.446 105.83 209.466C109.33 209.486 112.83 209.496 116.33 209.466C124.09 209.396 129.77 204.216 129.88 197.136C129.99 190.146 124.3 184.666 116.57 184.516C110.07 184.396 103.57 184.436 97.0704 184.506C89.1804 184.586 85.1604 188.646 85.0204 196.516C84.9004 203.306 83.6704 204.506 76.7304 204.506C60.5604 204.506 44.3904 204.446 28.2204 204.596C26.5304 204.616 23.9004 205.366 23.3104 206.556C15.1704 223.086 11.0204 240.646 10.2104 259.226H49.7804V259.236Z" fill="white"/>
<path d="M179.401 62.1363C179.361 81.5063 163.871 97.0263 144.551 97.0563C125.291 97.0763 109.721 81.5563 109.581 62.1863C109.441 42.6563 125.091 27.0763 144.751 27.1763C164.191 27.2763 179.441 42.6663 179.401 62.1363ZM169.221 62.0663C169.221 48.0363 158.721 37.4263 144.781 37.3663C130.611 37.3063 119.591 48.0963 119.581 62.0363C119.581 75.8163 131.141 87.3163 144.751 87.0563C158.551 86.7963 169.221 75.9063 169.221 62.0663Z" fill="white"/>
</svg>
